<svg xmlns="http://www.w3.org/2000/svg" viewBox="0 0 120.836 130.572"><defs/><defs><clipPath id="a" clipPathUnits="userSpaceOnUse"><path d="M0 253.578h300V0H0z"/></clipPath></defs><g clip-path="url(#a)" transform="matrix(1.33333 0 0 -1.33333 -140.218 234.841)"><path d="M150.637 132.687c-4.928.047-8.886 4.08-8.839 9.007a8.923 8.923 0 009.007 8.84 8.924 8.924 0 10-.168-17.847m.25 26.546c-9.732.092-17.697-7.724-17.789-17.456-.092-9.732 7.724-17.697 17.457-17.789 9.732-.092 17.698 7.724 17.79 17.456.091 9.732-7.725 17.697-17.458 17.79"/><path d="M126.67 141.963c.126 13.284 10.997 23.951 24.28 23.826 13.284-.125 23.952-10.997 23.826-24.28-.125-13.282-10.997-23.95-24.28-23.825-13.283.126-23.951 10.998-23.826 24.279m23.8 34.166l-.163-.002v.004h-31.6a2.888 2.888 0 01-2.88-2.88V141.484c0-19.134 15.51-34.644 34.644-34.644 19.135 0 34.644 15.51 34.644 34.644s-15.51 34.645-34.644 34.645M107.582 98.17c-1.187 0-2.066-.925-2.066-2.067V80.445c0-1.143.834-2.067 2.066-2.067 1.232 0 2.067.924 2.067 2.067v15.658c0 1.142-.879 2.067-2.067 2.067M107.582 105.999a2.441 2.441 0 01-2.419-2.42 2.44 2.44 0 012.42-2.417A2.44 2.44 0 01110 103.58a2.44 2.44 0 01-2.419 2.419M123.24 90.033c-3.166.924-4.486 1.407-4.486 2.903 0 1.54 1.495 2.11 3.695 2.11 1.583 0 2.946-.35 4.178-1.009.66-.354 1.231-.618 1.803-.618 1.143 0 1.583.75 1.583 1.54 0 .88-.836 1.584-2.023 2.156-1.628.791-3.65 1.231-5.454 1.231-4.75 0-7.784-2.155-7.784-5.454 0-3.166 1.98-5.015 7.388-6.465 3.08-.836 4.311-1.409 4.311-2.903 0-1.364-1.275-2.242-3.65-2.242-2.112 0-3.783.834-4.97 1.713-.484.352-.925.618-1.628.618-.879 0-1.583-.573-1.583-1.453 0-.572.264-1.232.88-1.715 1.758-1.364 4.221-2.243 6.992-2.243 5.234 0 7.961 2.375 7.961 5.63 0 3.563-2.463 4.838-7.213 6.201M143.15 90.033c-3.167.924-4.486 1.407-4.486 2.903 0 1.54 1.495 2.11 3.694 2.11 1.584 0 2.948-.35 4.179-1.009.659-.354 1.231-.618 1.803-.618 1.143 0 1.583.75 1.583 1.54 0 .88-.836 1.584-2.023 2.156-1.627.791-3.65 1.231-5.454 1.231-4.749 0-7.784-2.155-7.784-5.454 0-3.166 1.979-5.015 7.389-6.465 3.078-.836 4.309-1.409 4.309-2.903 0-1.364-1.275-2.242-3.651-2.242-2.111 0-3.782.834-4.969 1.713-.484.352-.924.618-1.627.618-.88 0-1.584-.573-1.584-1.453 0-.572.264-1.232.88-1.715 1.759-1.364 4.222-2.243 6.994-2.243 5.233 0 7.96 2.375 7.96 5.63 0 3.563-2.463 4.838-7.213 6.201M170.717 98.17a2.066 2.066 0 01-2.067-2.067v-9.192c0-2.772-2.199-4.927-5.1-4.927-2.906 0-5.059 2.155-5.059 4.927v9.192a2.067 2.067 0 11-4.135 0v-8.708c0-5.147 3.871-9.193 9.193-9.193 5.32 0 9.234 4.046 9.234 9.193v8.708a2.065 2.065 0 01-2.066 2.067M193.723 98.17a2.065 2.065 0 01-2.067-2.067v-9.192c0-2.772-2.199-4.927-5.102-4.927-2.902 0-5.058 2.155-5.058 4.927v9.192a2.066 2.066 0 11-4.134 0v-8.708c0-5.147 3.87-9.193 9.192-9.193 5.323 0 9.236 4.046 9.236 9.193v8.708a2.065 2.065 0 01-2.067 2.067"/></g></svg>