<?xml version="1.0" standalone="no"?>
<!DOCTYPE svg PUBLIC "-//W3C//DTD SVG 20010904//EN"
 "http://www.w3.org/TR/2001/REC-SVG-20010904/DTD/svg10.dtd">
<svg version="1.0" xmlns="http://www.w3.org/2000/svg"
 width="700.000000pt" height="700.000000pt" viewBox="0 0 700.000000 700.000000"
 preserveAspectRatio="xMidYMid meet">
<metadata>
Created by potrace 1.11, written by Peter Selinger 2001-2013
</metadata>
<g transform="translate(0.000000,700.000000) scale(0.100000,-0.100000)"
fill="#000000" stroke="none">
<path d="M2290 6325 l0 -675 -1145 0 -1145 0 0 -40 0 -40 1145 0 1145 0 0
-660 0 -660 -1145 0 -1145 0 0 -40 0 -40 1145 0 1145 0 0 -670 0 -670 -1145 0
-1145 0 0 -40 0 -40 1145 0 1145 0 0 -660 0 -660 -1145 0 -1145 0 0 -40 0 -40
1145 0 1145 0 0 -675 0 -675 40 0 40 0 0 675 0 675 1130 0 1130 0 0 -675 0
-675 40 0 40 0 0 675 0 675 1145 0 1145 0 0 40 0 40 -1145 0 -1145 0 0 660 0
660 1145 0 1145 0 0 40 0 40 -1145 0 -1145 0 0 670 0 670 1145 0 1145 0 0 40
0 40 -1145 0 -1145 0 0 660 0 660 1145 0 1145 0 0 40 0 40 -1145 0 -1145 0 0
675 0 675 -40 0 -40 0 0 -675 0 -675 -1130 0 -1130 0 0 675 0 675 -40 0 -40 0
0 -675z m2340 -1415 l0 -660 -1130 0 -1130 0 0 660 0 660 1130 0 1130 0 0
-660z m0 -1410 l0 -670 -1130 0 -1130 0 0 670 0 670 1130 0 1130 0 0 -670z m0
-1410 l0 -660 -1130 0 -1130 0 0 660 0 660 1130 0 1130 0 0 -660z"/>
</g>
</svg>
